<?xml version="1.0" encoding="UTF-8"?>
<svg id="Layer_1" data-name="Layer 1" xmlns="http://www.w3.org/2000/svg" viewBox="0 0 1536 1024">
  <path d="M1536,0v1024H0V0h1536ZM719,424v-52.5c-5.15-2.22-20.27-11.4-24.75-11.27s-28.96,7.18-33.32,9.2c-.89.41-5.84,3.85-5.95,4.27l-.09,54.19-11.89,4.1c-.6-3.41,1.22-12.38-.98-14.53l-27.91-11.97-34.02,8.6-1.1,35.9c-4.35-.54-7.62-4.15-12.42-3.93-1.43.07-19.76,5.73-20.59,6.42-2.82,2.34.03,12.53.1,16.01.28,14.18-4.62,6.58-12.58,6.51-1.85-.02-13.22,2.35-14.26,3.23-2.12,1.8-.93,9.89-1.25,12.76-12.8,1.23-25.6,3.23-38.35,5.15-1.59.24-6.05.43-6.64,1.86h570c.07-1.5-3.52-1.74-4.61-1.88-11.81-1.55-23.74-2.23-35.45-4.56-2.2-1.48.11-7.97-1.43-10.57-.53-.9-10.21-3.86-11.91-4.17-7.17-1.29-17.44,3.13-24.6,4.18v-23.5c0-.79-2.83-1.9-3.76-2.24-3.02-1.08-20.28-5.21-22.78-5.12-3.72.13-10.43,6.74-15.45,5.86v-29.5c-.7-1.06-1.71-1.6-2.75-2.25-2.11-1.32-23.53-10.83-24.88-10.97-8.86-.88-22.96,11.13-32.88,1.74l-.47-29.31c-.39-1.46-7-4.05-8.07-5.41-9.74-12.33-16.95-42.16-15.95-57.79l-1.99-12.51v28.5c0,1.4-7.17,23.23-8.52,26.48-1.47,3.53-10.48,18.41-10.48,19.52v32.5h-4.01s-.99,14.01-.99,14.01h-3v-57.01c0-.22-3.69-.22-4.04-1.67l-.12-31.67-8.88-5.33c-.85-6.28,1.47-16.69-.4-22.39-1.5-4.57-8.58-4.57-11.13-6.87-1.55-1.39-1.63-4.71-3.07-6.83s-3.96-2.18-5.1-5c-2.85-7.06-3.23-23-4.55-31.44-.73-4.68-2.95-9.94-3.63-14.37-1.86-12.1-.58-24.76-1.08-36.93-.05-1.22.75-3.72-.99-3.48l-1.02,40.49c-4.52,9.95-4.38,40.5-9.42,47.58-1.45,2.04-4.71,3.28-6.57,5.43s-2.66,5.57-4.04,6.96c-2.02,2.03-10.81,4.3-11.8,7.2-1.67,4.89,1.24,16.57-.15,21.62-.27.99-2.21,1.18-2.9,2.28-1.97,3.12-1.26,23.68-1.16,28.97.03,1.56,1.11,4.24.93,4.89-.51,1.92-5.11.34-5.9,7.05-1.53,12.9,1.12,28.67.08,41.9l-5.06,1.62ZM446.79,510.3c-11.63,1-23.92,5.89-26.33,18.66-1.91,10.1-1.82,53.81-.37,64.46s11.85,18.51,22.42,19.58c15.39,1.55,34.74.01,39.43-17.55,2.31-8.65,2.28-53.88.97-63.86-2.39-18.18-20.4-22.64-36.13-21.29ZM619,543v-14.5c0-1.81-4.4-10.35-6.1-11.9-8.32-7.63-32.87-7.75-42.44-2.63-13.12,7.02-14.65,27.95-7.68,39.74,7.39,12.5,30.93,16.19,34.94,27.05,6,16.22-11.82,21.28-15.98,10.98-1.52-3.77-.49-7.87-.76-11.74h-23c-3.05,29.7,15.91,35.52,41.49,32.99,18.82-1.86,24.06-16.29,22.39-33.37-2.24-22.82-21.58-21.83-35.2-32.8-10.94-8.8-2.01-25.34,7.39-18.39,4.53,3.35,4.08,9.57,3.93,14.56h21ZM1111,544c-.05-11.04-.25-24.34-11.63-29.87-9.26-4.51-27.36-4.56-37.43-2.68-25.67,4.8-27.8,37.12-8.29,50.4,11.27,7.67,34.52,10.43,32.28,27.58-.84,6.42-6.29,8.35-12.2,7.34-10.99-1.87-6.72-16.76-7.74-16.76h-26v15.5c0,2.34,5.38,9.82,7.5,11.5,10.1,8.01,43.26,8.52,53.84,1.84s12.11-22.93,9.22-33.9c-5.44-20.65-38.75-23.13-42.11-33.88-2.05-6.57,1.42-14.49,8.92-14.02,7.98.5,8.72,10.74,8.63,16.96h25ZM355,512h-24.5l-1.5,1.5v98.5h21v-60l14.1,44.9c3.66-.31,10.81,1.59,12.74-1.56l14.16-44.34v58.5c0,.31-1.37,1.42-1,2.5h21v-100h-25l-15.99,48-15.01-48ZM532.5,512c-12.52-1.48-27.68,1.1-40.5,0v100h41.5c4.51,0,13.91-5.52,16.36-9.64,6.07-10.23,5.82-38.36-8.85-42.86,15.33-5.28,13.59-36.46,1.95-43.95-2.08-1.34-8.09-3.27-10.45-3.55ZM681,512h-58v17h18v83h24v-83h16v-17ZM738,512h-50v100h50v-15.5c0-.3,1.27-.77,1-1.5h-27.5c-1.4-1.2-1.32-4.44-1.42-6.5-.3-6.31.62-13.1-.08-19.5h24v-17h-22.5c-2.93,0-.97-12.91-.87-15.33.04-1.13-1.82-7.67.87-7.67h26.5v-17ZM814,612l-16.01-37.55c4.53-4.97,8.99-7.66,10.95-15.01,2.14-8.03,2.17-29.62-2.09-36.8-2.98-5.02-12.66-10.64-18.36-10.64h-42.5v100h23v-35c1.74.34,5.71-.6,6.87.14,1.57,1.01,10.81,30.74,13.13,34.86h25ZM842,512h-28l44.51,169.01,39.49-169.01h-26l-14.5,83.01-15.5-83.01ZM955,512h-51v100h53v-17h-30v-26h25v-17h-25v-23h28v-17ZM1010.5,512c-14.35-1.7-31.81,1.26-46.5,0v100h25v-35c2.18.27,5.94-.91,7.51.99l13.49,34.01h27l-17.04-37.57c-.17-1.58,5.14-4.04,6.88-6.08,7.7-8.99,7.59-30.07,4.1-40.79-2.91-8.92-11.23-14.46-20.44-15.56ZM1173,512h-52v100h53v-17h-29v-26h24v-17h-24v-23h28v-17ZM830,634.99c-.21-3.02-.64-7.34-4.44-7.05-149.81-.59-299.62.76-449.02,4.1-15.5.35-31.32-1.35-46.55,1.46l500.01,1.49ZM1172.99,633.01l-285.53-5.08c-2.48-.08-2.25,3.57-2.5,5.56l288.03-.48Z" fill="#fff"/>
  <path d="M719,424l5.06-1.62c1.04-13.22-1.6-29-.08-41.9.79-6.71,5.39-5.12,5.9-7.05.17-.65-.9-3.33-.93-4.89-.1-5.3-.81-25.85,1.16-28.97.7-1.11,2.63-1.29,2.9-2.28,1.39-5.05-1.52-16.73.15-21.62.99-2.9,9.78-5.17,11.8-7.2,1.38-1.39,2.22-4.85,4.04-6.96s5.12-3.39,6.57-5.43c5.04-7.08,4.9-37.63,9.42-47.58l1.02-40.49c1.74-.23.94,2.27.99,3.48.5,12.18-.78,24.83,1.08,36.93.68,4.43,2.9,9.69,3.63,14.37,1.32,8.44,1.7,24.38,4.55,31.44,1.14,2.82,3.71,2.94,5.1,5s1.52,5.44,3.07,6.83c2.55,2.3,9.63,2.3,11.13,6.87,1.87,5.7-.45,16.11.4,22.39l8.88,5.33.12,31.67c.35,1.45,4.04,1.45,4.04,1.67v57h3s.99-14.01.99-14.01h4.01s0-32.49,0-32.49c0-1.11,9.02-15.98,10.48-19.52,1.35-3.26,8.52-25.08,8.52-26.48v-28.5l1.99,12.51c-1,15.63,6.21,45.46,15.95,57.79,1.07,1.36,7.68,3.95,8.07,5.41l.47,29.31c9.92,9.39,24.03-2.61,32.88-1.74,1.35.13,22.77,9.65,24.88,10.97,1.04.65,2.05,1.19,2.75,2.25v29.5c5.02.88,11.74-5.73,15.45-5.86,2.5-.08,19.76,4.05,22.78,5.12.93.33,3.76,1.45,3.76,2.24v23.5c7.16-1.05,17.42-5.47,24.6-4.18,1.71.31,11.38,3.27,11.91,4.17,1.54,2.6-.77,9.09,1.43,10.57,11.7,2.33,23.64,3.01,35.45,4.56,1.09.14,4.68.38,4.61,1.88H473c.59-1.43,5.05-1.62,6.64-1.86,12.75-1.91,25.56-3.91,38.35-5.15.32-2.86-.88-10.96,1.25-12.76,1.04-.88,12.42-3.24,14.26-3.23,7.96.07,12.86,7.66,12.58-6.51-.07-3.49-2.92-13.67-.1-16.01.83-.69,19.16-6.35,20.59-6.42,4.8-.23,8.07,3.39,12.42,3.93l1.1-35.9,34.02-8.6,27.91,11.97c2.2,2.15.38,11.12.98,14.53l11.89-4.1.09-54.19c.12-.43,5.06-3.86,5.95-4.27,4.36-2.03,28.94-9.08,33.32-9.2s19.6,9.05,24.75,11.27v52.5ZM768.94,292.95c.98-.96-.92-10.12-.99-12.4-.18-5.59-.13-11.49,0-17.09.05-2.09,2.46-7.79-2.44-6.45-1.58.43-1.13,1.86-1.09,2.98.38,11.42,1.03,22.63-.41,34.01,1.11-1.02,4.7-.83,4.93-1.05ZM777,301.99c3-2.55-8.89-5.04-10.45-5.02-2.59.04-16.26,3.18-15.54,6.51s18.7-1.47,19.5-2.45c.28-.35-.6-1.96-.5-2.02,1.73-1.2,4.09,5.46,7,2.99ZM778,306l-42.05,9.51-.67.93c1.58,5.22.19,10.69.82,15.98.24,1.99.75,4.68,3.39,3.57,2.92-1.23.61-4.68.7-6.49.18-3.32,1.47-6.89.81-10.5h3v16.01c1.16.4,4-.44,4-1.5v-15.5h3v16c1.16.4,4-.44,4-1.5v-15.5c0-.24,4-1.29,4,.5v15.5c1.05-.5,3.5-1.34,3.68-2.43.38-2.26-1.18-9.36-.74-13.1.18-1.48,1.86-2.46,2.56-2.45,2.88.07.02,13.45,1.5,15.97.14.15,3.99-.79,3.99-1v-17h3v15.5c0,1.65,5,.78,5,.5v-23ZM781,332l-24,4v134.5c0,.17,1.35,1.57,1.99,1.5,1.57-42.91.87-86.29,1.02-129.49.75-4.14,4.99-2.27,4.99-1.01v25.5c.65.08,2-1.33,2-1.5v-25c0-.26,1.14-1.01,1.5-1.48l2.5.98v22.5c0,.31-.97.64-.98,1-.05,1.46,2.98,1.5,2.98,0v-25.5h3v26c1.16.48,5-1.96,5-2.5v-29.5ZM747,371v-32.5c0-.68-1.21-1.15-2.07-1.12-1.62.06-12.93,2.96-12.93,4.12v31.5h3v-29h3v28h2v-27.5c0-.65,2.14-1.92,3-1.5v28h4ZM835.99,354.01c-2.03-.28-1.64-.18-2.25,1.25-.53,1.25-2.18,9.18-1.74,9.75l4.06-1.61-.07-9.39ZM662,428v-45.5c0-.26.78-1.01.84-1.95.09-1.26-1.06-2.98-.85-4.03.38-1.89,3.01-1.18,3.01-.02v98.5h2v-98.5c0-.61,2.06-1.92,2.99-1.49l1,108.49c.13,1.33,2-.88,2-1v-107c0-1.06,2.84-1.9,4-1.5v111l2-1.48.41-109.06c1.95-2.73,3.26-4.49,3.59.03,2.4,32.93-2.52,69.4-.04,102.05.13,1.69.14,7.27,3.04,6.46v-110.5c0-1.05,3.41-2.1,3.99-1.49.38.39.59,8.72.73,10.78,2.19,32.1-3.23,69.82.24,100.75.17,1.5.21,3.09,2.03,3.46l.53-123-34.53,9.02c2.21,14.56.48,29.75.97,44.53l2.04,11.46ZM765,369v113l3.01-.51v-105.49s3.99,0,3.99,0v107h2v-107.5c0-1.06,2.84-1.9,4-1.5v109h3c-.81-4.95.82-9.81,1.05-14.46,1.36-27.6,2.45-71.11-.05-98.03-.17-1.87-.97-3.63-1-5.51-5.13,1.81-10.5,3.97-15.99,4ZM802,371.99c-1.12-2.06-15.35-6.56-15.99-5.99-1.41,1.26,1.45,2.58,2.54,2.95,4.19,1.4,9.23,1.5,13.45,3.04ZM836,367c-8.54-.93-9.42,9.06-14,13.99l13.56-4.93.44-9.06ZM745,374c-3.54.03-16.21,2.26-17.59,5.02-.69,1.38.59,2.12.59,2.48v101.5h2v-95.5c0-.9,1.79-3.63,1.03-5.49l3.97-.02v98.52s2,1.48,2,1.48v-100.5c0-1.88,5-1.88,5,0v101.5h2c-.84-1.87,1-4.6,1-5.5v-103.5ZM819,385.5v30.5h3v-28h2v26.5c0,.29,1.08,1.04.92,1.89l-.89,1.14-9.03,1.48c-.37,1.06,1,2.17,1,2.49v63.5c7.94-2.3-2.42-20.02,6.99-20v13s3.01,0,3.01,0c-.67-1.31,0-2.55,0-3.5v-55.5c2.2-1.35,3,3.77,3,5.5v55.5l2.04-3.46.97-58.53c.93-.43,2.99.89,2.99,1.49v65.5l2-1.48,1-98.02c.45-2.48,1.6-2.77,4-2.5v31l6-1.01c-.65-2.31-2.35-1.83-3.99-.98v-8s4.98,1.99,4.98,1.99c.69-4.13-7.85-1.99-4.98-6,.17-.23,6.31,4.21,5,.51l-5.08-2.16.08-8.35,4.99,1.99c-4.55-3.92-6.07-2.67-4.99-9.99,2.3,2.6,4.36.92,6.75,1.64.89.27,9.93,5.34,8.23,1.87-1.79-3.65-12.87-4.48-16.44-5.57l-.57,2.05h-.97c.16-1.51.04-1.95-1.47-2.11-2.61-.28-20.15,4.41-20.54,5.61ZM613,408l-31,8v71h4v-18.5c6.69-3.12,15.53-2.85,22.99-4.5v4.99c-5.88.76-12.8,1.56-18.49,3.01-1.39.35-3.11-.01-3.5,1.99l22-2.99v15h4v-78ZM852,415l-13.01,3.01c-.38,1.01,1.01,2.09,1.01,2.49v64c0,1.73,12,.68,12-1v-68.5ZM891,452v33c0,.27,4.58,1.69,4.87-.46l.13-68.53-23.05,5.58c-.45,2.65-.17,26.33.52,27.53.46.79,1.91.06,2.03.15.77.56.55,3.37,2.51,1.24.59-6.35-.79-13.91-.09-20.07.23-2.04,1.37-.92,2.1-1.93l-2-.49c.1-.81-.2-2.82-.02-3,.33-.33,7.99-.99,9.39-1.14.72-.08,3.66-1.4,3.6.64-.08,2.47-8.99.03-7.97,4.5h6.98c-10.31,1.05-11.45,6.65,0,2l-6.98,5.99c2.75.87,6.63-3.85,7.99,0-2.96.91-7.45.87-9,4l9-.98-8.01,3.5c.09,3.89,6.49-1.09,8.01,1,.7,2.67-7.27,1.89-8.01,2.5-1.08,4.57,7.32-.94,8.01,1.5.92,3.28-8.95.41-8,4.48l8-.99ZM901,420v54c2.43.42,1.66-.28,2.42-1.91l10.58,1.9c.47-2.85-.6-1.66-2.31-2.13-2.67-.73-9.97-.08-9.66-3.37.25-2.74,9.15,1.3,10.97.49-2.11-3.78-10.09-1.28-10.49-5-.48-4.42,8.26.75,10.49-.49-3.59-3.77-11.68-.73-9.99-7.5l10.99,1.99c-2.42-4.71-14.04-.42-11.49-7l11.48,3.01c.48-2.58-.45-1.77-1.98-2.46-1.89-.85-9.91-2.29-9.99-4.03-.19-4.02,11.51,1.92,11.97,1.5,1.76-1.62-1.27-2.12-1.99-2.46-4.26-2-10.57-1.07-9-6.54l11.99,2.99c-2.15-5-13.94-1.66-11.48-8.01l10.48,3.01c.49-2.79-.59-1.68-2.19-2.25-3.93-1.4-12.81-1.01-8.32-6.71l10.03,3.95c.86.13.57-1.89.49-1.97-1.22-1.32-10.76-2.85-11.6-3.97-.71-.96,1.84-6.4-1.4-7.04ZM649,439v45.5c0,1.13,2.97,2.41,3.87.04l-.02-50.88c-.37-1.13-.9-1.54-2.12-1.48-1.86.09-13.72,3.99-13.72,5.33v42c0,.88,1.86,3.63,1.01,5.5h.99s0-45,0-45h2v45c.65.08,2-1.33,2-1.5v-44.5h2v45h.99c-.38-1.25,1.01-2.9,1.01-3.5v-41.5h2ZM565,487.5c-1.19-10.4,0-25.06,0-36,0-.13,1.82-2.18-.52-2.5s-13.64,5.48-17.48,5v22c3.59-1.78.89-10.91,2.13-12.87l11.35-3.13c2.02.29.33,5.57.43,7.52.22,4.03-.06,7.6.07,10.98.15,3.82,1.22,8.47,1.02,12.5,5.94-1.8,3.31-.67,2.99-3.5ZM865,450.01h-4.99c-.92,3.37,2.62,1.18,3,2.5.82,2.88-4.1-.09-3,3.49l4.99-1.03v-4.96ZM940.99,453.01c-2.35-3.09-3.14,8.12-.49,8.99l.49-8.99ZM944.99,454.01c-3.83-.8-1.33,5.8-1.99,7.99,3.83.8,1.33-5.8,1.99-7.99ZM937,455l-12.57,3.96.58,9.04,6.99-1.99c-.24,2.78-7,2.6-7,2.99v16c3.93.65,1.28-6.76,1.99-9.35.26-.96,1.94-.58,2-.66.28-.37-5.75-5.48,3.01-4.98v16c1.31.33,5-.19,5-1.5v-29.5ZM948.99,463.99c.82-2.94,2.88-8.77-1.98-8.99.14,2.44-.44,7.47,1.98,8.99ZM961,465c-.34-3.69,2.79-7.52-2.99-6.99,0,2.77-.96,7.14,2.99,6.99ZM553.99,485.99c-.86-1.22,1.69-10.05-.49-9.97-2.59.09.62,7.2-1.28,8.72l1.77,1.26ZM536,478c-.73-.72-9.26,1-11.02,1.49-1.11.31-5.84,1.22-4.98,3,2.14,4.44,10.9-1.61,13.04-.06l1.44,8.57c2.97-3.37.96-8.89,1.51-13ZM988,492.01c-.31-2.25,1.05-13.85-1.49-13.98-.18,0-2.03,1.42-3.26,1.72-2.69.66-17.57,3.61-18.24,4.27-.54.54-.73,2.11,1.27,1.78,6.21-1.04,12.37-2.67,18.73-2.79v9.01s3,0,3,0Z"/>
  <polygon points="842 512 857.5 595.01 872 512 898 512 858.51 681.01 814 512 842 512"/>
  <path d="M355,512l15.01,48,15.99-48h25v100h-21c-.37-1.08,1-2.19,1-2.5v-58.5l-14.16,44.34c-1.93,3.15-9.07,1.25-12.74,1.56l-14.1-44.9v60h-21v-98.5l1.5-1.5h24.5Z"/>
  <path d="M1010.5,512c9.21,1.09,17.54,6.64,20.44,15.56,3.49,10.72,3.6,31.8-4.1,40.79-1.75,2.04-7.06,4.5-6.88,6.08l17.04,37.57h-27l-13.49-34.01c-1.57-1.91-5.32-.72-7.51-.99v35h-25v-100c14.69,1.26,32.15-1.7,46.5,0ZM989,529v29.5c0,1.95,8.83.8,10.43.43,8.36-1.92,8.04-10.47,7.61-17.48-.81-13.16-6.11-12.79-18.04-12.45Z"/>
  <path d="M814,612h-25c-2.33-4.12-11.57-33.86-13.13-34.86-1.15-.74-5.13.2-6.87-.14v35h-23v-100h42.5c5.7,0,15.38,5.62,18.36,10.64,4.26,7.18,4.23,28.77,2.09,36.8-1.96,7.35-6.43,10.04-10.95,15.01l16.01,37.55ZM769,560c16.96.37,19.5-5.78,18.05-21.55-.99-10.77-9.41-9.75-18.05-9.45v31Z"/>
  <path d="M1111,544h-25c.09-6.22-.65-16.46-8.63-16.96-7.5-.47-10.97,7.45-8.92,14.02,3.36,10.75,36.67,13.23,42.11,33.88,2.89,10.97,1.24,27.29-9.22,33.9s-43.74,6.18-53.84-1.84c-2.12-1.68-7.5-9.16-7.5-11.5v-15.5h26c1.02,0-3.25,14.89,7.74,16.76,5.91,1.01,11.36-.91,12.2-7.34,2.24-17.16-21.01-19.92-32.28-27.58-19.51-13.27-17.38-45.6,8.29-50.4,10.07-1.88,28.16-1.83,37.43,2.68,11.38,5.54,11.58,18.83,11.63,29.87Z"/>
  <path d="M532.5,512c2.36.28,8.37,2.21,10.45,3.55,11.64,7.48,13.38,38.66-1.95,43.95,14.67,4.5,14.92,32.63,8.85,42.86-2.44,4.12-11.85,9.64-16.36,9.64h-41.5v-100c12.82,1.1,27.98-1.48,40.5,0ZM514,554c11.6,1.1,16.08-1.57,16.06-13.5s-5.27-11.99-16.06-11.5v25ZM514,595c12.26,1.48,17.24-1.82,17.03-14.45-.2-11.9-6.31-13.43-17.03-12.55v27Z"/>
  <path d="M446.79,510.3c15.73-1.35,33.74,3.11,36.13,21.29,1.31,9.98,1.34,55.21-.97,63.86-4.69,17.56-24.04,19.1-39.43,17.55-10.58-1.07-20.93-8.56-22.42-19.58s-1.54-54.36.37-64.46c2.41-12.76,14.71-17.66,26.33-18.66ZM457.68,594.69c1.23-1.34,2.14-4.32,2.35-6.16,1.19-10.64,1.34-42.58-.12-52.93s-15.34-10.56-16.82,0c-1.35,9.62-1.35,43.21,0,52.82,1.03,7.34,9.33,12.02,14.59,6.28Z"/>
  <path d="M619,543h-21c.15-4.99.59-11.22-3.93-14.56-9.4-6.95-18.33,9.59-7.39,18.39,13.63,10.96,32.96,9.98,35.2,32.8,1.68,17.07-3.57,31.51-22.39,33.37-25.58,2.53-44.54-3.29-41.49-32.99h23c.27,3.87-.76,7.97.76,11.74,4.16,10.3,21.97,5.24,15.98-10.98-4.02-10.87-27.56-14.56-34.94-27.05-6.97-11.79-5.44-32.72,7.68-39.74,9.57-5.12,34.12-5,42.44,2.63,1.7,1.56,6.1,10.09,6.1,11.9v14.5Z"/>
  <polygon points="1173 512 1173 529 1145 529 1145 552 1169 552 1169 569 1145 569 1145 595 1174 595 1174 612 1121 612 1121 512 1173 512"/>
  <polygon points="955 512 955 529 927 529 927 552 952 552 952 569 927 569 927 595 957 595 957 612 904 612 904 512 955 512"/>
  <path d="M738,512v17h-26.5c-2.69,0-.83,6.54-.87,7.67-.1,2.42-2.06,15.33.87,15.33h22.5v17h-24c.71,6.4-.22,13.19.08,19.5.1,2.07.01,5.3,1.42,6.5h27.5c.27.73-1,1.2-1,1.5v15.5h-50v-100h50Z"/>
  <polygon points="681 512 681 529 665 529 665 612 641 612 641 529 623 529 623 512 681 512"/>
  <path d="M830,634.99l-500.01-1.49c15.23-2.8,31.05-1.11,46.55-1.46,149.4-3.33,299.21-4.68,449.02-4.1,3.8-.29,4.23,4.03,4.44,7.05Z"/>
  <path d="M1172.99,633.01l-288.03.48c.25-1.99.03-5.64,2.5-5.56l285.53,5.08Z"/>
  <path d="M662,428l-2.04-11.46c-.48-14.78,1.25-29.97-.97-44.53l34.53-9.02-.53,123c-1.82-.38-1.86-1.97-2.03-3.46-3.47-30.93,1.95-68.65-.24-100.75-.14-2.05-.35-10.39-.73-10.78-.59-.6-3.99.44-3.99,1.49v110.5c-2.91.81-2.92-4.78-3.04-6.46-2.48-32.66,2.45-69.12.04-102.05-.33-4.52-1.64-2.76-3.59-.03l-.41,109.06-2,1.48v-111c-1.16-.4-4,.44-4,1.5v107c0,.12-1.87,2.33-2,1l-1-108.49c-.93-.43-2.99.89-2.99,1.49v98.5h-2v-98.5c0-1.16-2.63-1.87-3.01.02-.21,1.04.94,2.76.85,4.03-.07.95-.84,1.7-.84,1.95v45.5Z" fill="#fff"/>
  <path d="M819,385.5c.39-1.21,17.94-5.89,20.54-5.61,1.51.16,1.63.6,1.47,2.11h.97s.57-2.04.57-2.04c3.56,1.09,14.65,1.91,16.44,5.57,1.7,3.47-7.34-1.6-8.23-1.87-2.39-.73-4.46.96-6.75-1.64-1.08,7.32.44,6.07,4.99,9.99l-4.99-1.99-.08,8.35,5.08,2.16c1.32,3.7-4.83-.74-5-.51-2.87,4.01,5.67,1.87,4.98,6l-4.98-1.99v8c1.65-.85,3.35-1.33,3.99.98l-6,1.01v-31c-2.4-.27-3.55.02-4,2.5l-1,98.02-2,1.48v-65.5c0-.61-2.06-1.92-2.99-1.49l-.97,58.53-2.04,3.46v-55.5c0-1.73-.8-6.85-3-5.5v55.5c0,.95-.67,2.19,0,3.5h-3s0-12.99,0-12.99c-9.42-.02.95,17.7-6.99,20v-63.5c0-.33-1.36-1.44-1-2.49l9.03-1.48.89-1.14c.15-.85-.92-1.6-.92-1.89v-26.5h-2v28h-3v-30.5ZM828.99,387c-2.65-3.48-2.1,9.36-1.98,10,3.49-1.72,1.55-6.9,1.98-10ZM827,399.5c-.72,2.82,0,11.33,0,15,0,.31-1.38,1.41-1,2.49h2.99c.22-6.44-1.06-12.6,0-18.99-.63-.03-1.9,1.16-1.99,1.5ZM834.99,405c-3.58-.25-3.14,3.63-2.99,6h2.99s0-6,0-6ZM822.99,429h-3.99s0,6,0,6c4.45-1.13,4.45-1.19,3.98-6ZM823,444c-2.57-2.64-5.36,4.49-3.98,7,4.02.7,5.4-5.55,3.98-7Z" fill="#fff"/>
  <path d="M613,408v78h-4v-15l-22,2.99c.39-2,2.11-1.64,3.5-1.99,5.7-1.45,12.61-2.25,18.49-3.01v-4.99c-7.46,1.64-16.3,1.38-22.99,4.5v18.5h-4v-71l31-8ZM609,416.01c-.72-.75-18.24,3.41-20.45,4.04-1.7.49-2.88.79-2.54,2.95,2.92-.7,22.2-3.15,23-4,.1-.11.09-2.88,0-2.99ZM608.99,422c-5.67,2.46-17.46,2.27-22.33,4.98-1.36.76-.51,1.81-.66,3.01,6.25-2.01,15.38-2.11,21.28-4.21,2.07-.73,1.84-1.94,1.71-3.78ZM609,429.01c-.75-.78-19.56,3.32-21.28,4.21-1.59.82-2.59,2.82-1.71,3.78.77.84,21.33-4.42,22.33-4.98,1.06-.59.92-2.75.66-3.01ZM609,436.01c-.79-.81-20.6,3.14-22,4.49-1.22,1.17-1.14,1.93-.99,3.5,4.63-2.41,19.17-2.64,22.41-4.9.86-.6.83-2.83.58-3.09ZM608.99,446.99l-.48-4.98c-4.35,3.13-18.74,2.66-21.93,4.88-1.25.87-.39,2.89-.58,4.1l22.99-4ZM609,450.01c-3.94,1.16-20.15,2.29-22.41,3.89-1.21.86-.42,2.81-.58,4.1,4.8-1.63,18.92-1.51,22.41-3.89,1.25-.85.38-2.9.57-4.1ZM608.99,457c-3.03,1.08-22.14,3.21-22.87,4.11-.51.63.06,2.79-.13,3.88.79.83,21.9-2.99,22.57-3.93.78-1.08.37-2.8.43-4.06Z" fill="#fff"/>
  <path d="M765,369c5.49-.03,10.86-2.19,15.99-4,.04,1.88.83,3.64,1,5.51,2.5,26.92,1.41,70.43.05,98.03-.23,4.65-1.85,9.51-1.05,14.46h-3v-109.01c-1.16-.4-4,.44-4,1.5v107.5h-2v-107h-4s.01,105.49.01,105.49l-3.01.51v-113Z" fill="#fff"/>
  <path d="M745,374v103.5c0,.9-1.84,3.63-1,5.51h-2v-101.51c0-1.88-5-1.88-5,0v100.5l-2-1.48v-98.52s-3.97.02-3.97.02c.77,1.86-1.03,4.59-1.03,5.49v95.5h-2v-101.5c0-.35-1.28-1.09-.59-2.48,1.38-2.77,14.05-4.99,17.59-5.02Z" fill="#fff"/>
  <path d="M781,332v29.5c0,.54-3.84,2.98-5,2.5v-26h-3v25.5c0,1.5-3.04,1.46-2.98,0,.01-.36.98-.69.98-1v-22.5l-2.5-.98c-.36.47-1.5,1.21-1.5,1.48v25c0,.17-1.35,1.58-2,1.5v-25.5c0-1.27-4.24-3.13-4.99,1.01-.14,43.2.56,86.59-1.02,129.49-.64.07-1.99-1.33-1.99-1.5v-134.5l24-4Z" fill="#fff"/>
  <path d="M891,452l-8,.99c-.95-4.08,8.92-1.21,8-4.48-.69-2.44-9.09,3.07-8.01-1.5.74-.61,8.71.17,8.01-2.5-1.52-2.09-7.92,2.89-8.01-1l8.01-3.5-9,.98c1.55-3.13,6.04-3.09,9-4-1.36-3.84-5.24.88-7.99,0l6.98-5.99c-11.45,4.64-10.3-.96,0-2.01h-6.98c-1.02-4.46,7.89-2.02,7.97-4.49.07-2.03-2.87-.71-3.6-.64-1.4.15-9.06.81-9.39,1.14-.18.18.11,2.2.02,3l2,.49c-.73,1-1.87-.11-2.1,1.93-.7,6.16.68,13.72.09,20.07-1.95,2.13-1.74-.67-2.51-1.24-.12-.09-1.57.63-2.03-.15-.69-1.19-.97-24.87-.52-27.53l23.05-5.58-.13,68.53c-.29,2.15-4.87.73-4.87.46v-33Z" fill="#fff"/>
  <path d="M852,415v68.5c0,1.68-12,2.73-12,1v-64c0-.4-1.38-1.48-1.01-2.49l13.01-3.01ZM847.99,420.01c-3.5-.6-.3,1.5-2.51,2.99-2.52,1.69.8-3.73-2.48-1.99v5c3.08-2.21,6.1-1.12,4.99-5.99ZM847.99,442l-4.99,1.01,4,1c-1.31,3.03-5.14.42-3.99,4.99,5.7-.59,5.42-1.47,4.99-6.99ZM847.87,455.88c.65-.74-.13-4.46.12-5.87l-5,1.01c-.78,4.23,3.58-.17,4.01,1.5.62,2.42-2.01,1.29-3.33,1.47-1.2.16-.81,2.86-.67,3.01.17.19,4.7-.93,4.86-1.12ZM848,459h-5.01s.01,6,.01,6c.16.19,4.7-.93,4.86-1.12.31-.36.3-4.7.13-4.88ZM847.99,481.99v-11.99s-4.94,1.05-4.94,1.05l-.04,11.95,2-2.99c.88-1.08,1.25,4.21,2.98,1.99Z" fill="#fff"/>
  <path d="M778,306v23c0,.28-5,1.15-5-.5v-15.5h-3v17c0,.21-3.86,1.15-3.99,1-1.49-2.52,1.38-15.9-1.5-15.97-.7-.02-2.38.96-2.56,2.45-.44,3.74,1.12,10.84.74,13.1-.18,1.09-2.63,1.93-3.68,2.43v-15.5c0-1.79-4-.74-4-.5v15.5c0,1.06-2.84,1.9-4,1.5v-16h-3v15.5c0,1.06-2.84,1.9-4,1.5v-16h-3c.67,3.61-.63,7.18-.81,10.5-.1,1.81,2.21,5.27-.7,6.49-2.64,1.11-3.15-1.58-3.39-3.57-.63-5.29.76-10.76-.82-15.98l.67-.93,42.05-9.51Z" fill="#fff"/>
  <path d="M649,439h-2v41.5c0,.6-1.39,2.25-1.01,3.49h-.99s0-44.99,0-44.99h-2v44.5c0,.17-1.35,1.58-2,1.5v-45h-2v45h-.99c.85-1.87-1.01-4.62-1.01-5.5v-42c0-1.34,11.86-5.24,13.72-5.33,1.22-.06,1.76.35,2.12,1.48l.02,50.88c-.9,2.37-3.87,1.09-3.87-.04v-45.5Z" fill="#fff"/>
  <path d="M747,371h-4v-28c-.86-.42-3,.85-3,1.5v27.5h-2v-28h-3v29h-3v-31.5c0-1.16,11.31-4.06,12.93-4.12.86-.03,2.07.44,2.07,1.12v32.5Z" fill="#fff"/>
  <path d="M565,487.5c.32,2.83,2.95,1.7-2.99,3.5.2-4.03-.87-8.68-1.02-12.5-.13-3.38.14-6.95-.07-10.98-.1-1.95,1.59-7.23-.43-7.52l-11.35,3.13c-1.24,1.96,1.46,11.09-2.13,12.87v-22c3.84.48,15.06-5.33,17.48-5s.52,2.37.52,2.5c0,10.94-1.19,25.6,0,36Z" fill="#fff"/>
  <path d="M937,455v29.5c0,1.31-3.69,1.83-5,1.5v-16c-8.76-.5-2.73,4.62-3.01,4.98-.06.08-1.74-.3-2,.66-.71,2.6,1.95,10-1.99,9.35v-16c0-.39,6.76-.21,7-2.99l-6.99,1.99-.58-9.04,12.57-3.96Z" fill="#fff"/>
  <path d="M901,420c3.24.64.69,6.08,1.4,7.04.84,1.13,10.37,2.65,11.6,3.97.08.09.37,2.11-.49,1.97l-10.03-3.95c-4.49,5.7,4.39,5.3,8.32,6.71,1.6.57,2.68-.53,2.19,2.25l-10.48-3.01c-2.46,6.34,9.34,3,11.48,8.01l-11.99-2.99c-1.57,5.47,4.74,4.54,9,6.54.72.34,3.75.84,1.99,2.46-.46.42-12.16-5.51-11.97-1.5.08,1.74,8.1,3.18,9.99,4.03,1.53.69,2.46-.12,1.98,2.46l-11.48-3.01c-2.55,6.59,9.07,2.3,11.49,7l-10.99-1.99c-1.7,6.77,6.39,3.73,9.99,7.5-2.23,1.24-10.97-3.93-10.49.49.4,3.72,8.38,1.22,10.49,5-1.82.81-10.72-3.24-10.97-.49-.3,3.29,6.99,2.64,9.66,3.37,1.71.46,2.78-.72,2.31,2.13l-10.58-1.9c-.75,1.62.01,2.33-2.42,1.91v-54Z" fill="#fff"/>
  <path d="M768.94,292.95c-.23.22-3.82.03-4.93,1.05,1.44-11.38.79-22.59.41-34.01-.04-1.11-.48-2.55,1.09-2.98,4.9-1.34,2.49,4.35,2.44,6.45-.13,5.6-.18,11.5,0,17.09.07,2.28,1.97,11.44.99,12.4Z" fill="#fff"/>
  <path d="M777,301.99c-2.91,2.47-5.27-4.19-7-2.99-.09.06.79,1.67.5,2.02-.8.98-18.77,5.81-19.5,2.45s12.95-6.47,15.54-6.51c1.55-.02,13.45,2.47,10.45,5.02Z" fill="#fff"/>
  <path d="M836,367l-.44,9.06-13.56,4.93c4.58-4.94,5.46-14.92,14-13.99Z" fill="#fff"/>
  <path d="M988,492.01h-2.99s0-9.01,0-9.01c-6.36.13-12.51,1.75-18.73,2.79-2,.34-1.81-1.24-1.27-1.78.66-.66,15.55-3.62,18.24-4.27,1.23-.3,3.08-1.73,3.26-1.72,2.54.13,1.18,11.73,1.49,13.98Z" fill="#fff"/>
  <path d="M536,478c-.55,4.11,1.46,9.63-1.51,13l-1.44-8.57c-2.14-1.55-10.9,4.5-13.04.06-.86-1.78,3.86-2.69,4.98-3,1.75-.49,10.29-2.21,11.02-1.49Z" fill="#fff"/>
  <path d="M835.99,354.01l.07,9.39-4.06,1.61c-.44-.57,1.21-8.5,1.74-9.75.6-1.43.22-1.53,2.25-1.25Z" fill="#fff"/>
  <path d="M802,371.99c-4.22-1.54-9.27-1.64-13.45-3.04-1.09-.36-3.96-1.69-2.54-2.95.64-.57,14.87,3.92,15.99,5.99Z" fill="#fff"/>
  <path d="M961,465c-3.95.15-3-4.22-2.99-6.99,5.78-.52,2.65,3.3,2.99,6.99Z" fill="#fff"/>
  <path d="M948.99,463.99c-2.42-1.52-1.84-6.55-1.98-8.99,4.86.22,2.8,6.05,1.98,8.99Z" fill="#fff"/>
  <path d="M865,450.01v4.96s-4.99,1.03-4.99,1.03c-1.1-3.58,3.82-.6,3-3.49-.38-1.33-3.92.87-3-2.5h4.99Z" fill="#fff"/>
  <path d="M940.99,453.01l-.49,8.99c-2.65-.87-1.86-12.08.49-8.99Z" fill="#fff"/>
  <path d="M944.99,454.01c-.66,2.19,1.84,8.79-1.99,7.99.66-2.19-1.84-8.79,1.99-7.99Z" fill="#fff"/>
  <path d="M553.99,485.99l-1.77-1.26c1.9-1.51-1.31-8.63,1.28-8.72,2.18-.07-.36,8.75.49,9.97Z" fill="#fff"/>
  <path d="M989,529c11.93-.33,17.23-.71,18.04,12.45.43,7,.75,15.55-7.61,17.48-1.6.37-10.43,1.52-10.43-.43v-29.5Z" fill="#fff"/>
  <path d="M769,560v-31c8.64-.29,17.06-1.32,18.05,9.45,1.45,15.76-1.08,21.92-18.05,21.55Z" fill="#fff"/>
  <path d="M514,595v-27c10.72-.88,16.83.65,17.03,12.55.21,12.63-4.77,15.92-17.03,14.45Z" fill="#fff"/>
  <path d="M514,554v-25c10.79-.48,16.04-.74,16.06,11.5s-4.46,14.6-16.06,13.5Z" fill="#fff"/>
  <path d="M457.68,594.69c-5.26,5.74-13.55,1.07-14.59-6.28-1.35-9.61-1.34-43.2,0-52.82,1.48-10.56,15.33-10.55,16.82,0s1.31,42.29.12,52.93c-.21,1.85-1.12,4.83-2.35,6.16Z" fill="#fff"/>
  <path d="M827,399.5c.09-.34,1.36-1.53,1.99-1.5-1.06,6.39.23,12.56,0,19.01h-2.99c-.38-1.09,1-2.2,1-2.51,0-3.67-.72-12.18,0-15Z"/>
  <path d="M823,444c1.41,1.45.03,7.7-3.98,7-1.38-2.51,1.41-9.64,3.98-7Z"/>
  <path d="M822.99,429c.47,4.81.47,4.87-3.98,6v-6s3.98,0,3.98,0Z"/>
  <path d="M828.99,387c-.43,3.09,1.51,8.28-1.98,10-.12-.64-.66-13.47,1.98-10Z"/>
  <path d="M834.99,405v6s-2.99,0-2.99,0c-.15-2.37-.59-6.25,2.99-6Z"/>
  <path d="M608.99,457c-.06,1.26.35,2.98-.43,4.06-.67.93-21.78,4.76-22.57,3.93.19-1.09-.38-3.25.13-3.88.73-.9,19.84-3.03,22.87-4.11Z"/>
  <path d="M609,450.01c-.19,1.2.67,3.25-.57,4.1-3.5,2.38-17.62,2.26-22.41,3.89.16-1.29-.63-3.24.58-4.1,2.26-1.6,18.47-2.73,22.41-3.89Z"/>
  <path d="M608.99,446.99l-22.99,4c.19-1.21-.67-3.23.58-4.1,3.2-2.22,17.58-1.75,21.93-4.88l.48,4.98Z"/>
  <path d="M609,436.01c.25.26.28,2.48-.58,3.09-3.24,2.27-17.78,2.49-22.41,4.9-.15-1.58-.23-2.33.99-3.5,1.4-1.35,21.22-5.3,22-4.49Z"/>
  <path d="M609,429.01c.26.26.39,2.42-.66,3.01-1,.56-21.55,5.82-22.33,4.98-.88-.96.12-2.96,1.71-3.78,1.72-.89,20.52-4.99,21.28-4.21Z"/>
  <path d="M608.99,422c.14,1.84.36,3.05-1.71,3.78-5.9,2.1-15.04,2.2-21.28,4.21.15-1.2-.7-2.26.66-3.01,4.86-2.71,16.65-2.52,22.33-4.98Z"/>
  <path d="M609,416.01c.1.11.11,2.88,0,2.99-.8.85-20.08,3.31-23,4-.33-2.16.84-2.46,2.54-2.95,2.21-.63,19.73-4.8,20.45-4.04Z"/>
  <path d="M847.99,481.99c-1.73,2.22-2.1-3.07-2.98-1.99l-2,2.99.04-11.95,4.94-1.05v11.99Z"/>
  <path d="M848,459c.17.17.17,4.51-.13,4.88-.16.19-4.7,1.31-4.86,1.12v-6s5,0,5,0Z"/>
  <path d="M847.99,442c.44,5.52.71,6.41-4.99,6.99-1.15-4.56,2.68-1.95,3.99-4.99l-4-1,4.99-1.01Z"/>
  <path d="M847.87,455.88c-.16.19-4.7,1.31-4.86,1.12-.14-.15-.52-2.85.67-3.01,1.32-.18,3.95.95,3.33-1.47-.43-1.67-4.8,2.72-4.01-1.5l5-1.01c-.25,1.41.53,5.13-.12,5.87Z"/>
  <path d="M847.99,420.01c1.11,4.88-1.91,3.79-4.98,5.99v-5c3.28-1.74-.05,3.68,2.47,1.99,2.21-1.48-.99-3.58,2.51-2.99Z"/>
</svg>